<svg width="48" height="48" viewBox="0 0 48 48" fill="none" xmlns="http://www.w3.org/2000/svg">
<rect width="48" height="48" rx="24" fill="#F0FDF4"/>
<path d="M32.3984 14.3516C32.5026 14.4818 32.5938 14.625 32.6719 14.7812C32.724 14.9115 32.75 15.0677 32.75 15.25V19C32.75 19.3646 32.6328 19.6641 32.3984 19.8984C32.1641 20.1328 31.8646 20.25 31.5 20.25C31.1354 20.25 30.8359 20.1328 30.6016 19.8984C30.3672 19.6641 30.25 19.3646 30.25 19V18.2578L26.1484 22.3984C25.888 22.6068 25.6016 22.724 25.2891 22.75C24.9766 22.75 24.6901 22.6458 24.4297 22.4375L20.875 19.3906L17.3203 22.4375C17.0339 22.6719 16.7344 22.776 16.4219 22.75C16.0833 22.724 15.7969 22.5807 15.5625 22.3203C15.3281 22.0339 15.224 21.7344 15.25 21.4219C15.276 21.0833 15.4193 20.7969 15.6797 20.5625L20.0547 16.8125C20.6016 16.3958 21.1484 16.3958 21.6953 16.8125L25.1719 19.7812L28.4922 16.5H27.75C27.3854 16.5 27.0859 16.3828 26.8516 16.1484C26.6172 15.9141 26.5 15.6146 26.5 15.25C26.5 14.8854 26.6172 14.5859 26.8516 14.3516C27.0859 14.1172 27.3854 14 27.75 14H31.5C31.8646 14 32.1641 14.1172 32.3984 14.3516ZM14 25.875C14.026 25.3542 14.2083 24.9115 14.5469 24.5469C14.9115 24.2083 15.3542 24.026 15.875 24H32.125C32.6458 24.026 33.0885 24.2083 33.4531 24.5469C33.7917 24.9115 33.974 25.3542 34 25.875V32.125C33.974 32.6458 33.7917 33.0885 33.4531 33.4531C33.0885 33.7917 32.6458 33.974 32.125 34H15.875C15.3542 33.974 14.9115 33.7917 14.5469 33.4531C14.2083 33.0885 14.026 32.6458 14 32.125V25.875ZM15.875 30.25V32.125H17.75C17.724 31.6042 17.5417 31.1615 17.2031 30.7969C16.8385 30.4583 16.3958 30.276 15.875 30.25ZM17.75 25.875H15.875V27.75C16.3958 27.724 16.8385 27.5417 17.2031 27.2031C17.5417 26.8385 17.724 26.3958 17.75 25.875ZM32.125 30.25C31.6042 30.276 31.1615 30.4583 30.7969 30.7969C30.4583 31.1615 30.276 31.6042 30.25 32.125H32.125V30.25ZM30.25 25.875C30.276 26.3958 30.4583 26.8385 30.7969 27.2031C31.1615 27.5417 31.6042 27.724 32.125 27.75V25.875H30.25ZM26.5 29C26.474 28.0625 26.0573 27.3464 25.25 26.8516C24.4167 26.3828 23.5833 26.3828 22.75 26.8516C21.9427 27.3464 21.526 28.0625 21.5 29C21.526 29.9375 21.9427 30.6536 22.75 31.1484C23.5833 31.6172 24.4167 31.6172 25.25 31.1484C26.0573 30.6536 26.474 29.9375 26.5 29Z" fill="#22C55E"/>
</svg>
