<svg width="48" height="48" viewBox="0 0 48 48" fill="none" xmlns="http://www.w3.org/2000/svg">
<rect width="48" height="48" rx="24" fill="#EFF6FF"/>
<path d="M31.5 24C31.5 22.6458 31.1615 21.3958 30.4844 20.25C29.8333 19.1042 28.9219 18.1927 27.75 17.5156C26.5781 16.8385 25.3281 16.5 24 16.5C22.6719 16.5 21.4219 16.8385 20.25 17.5156C19.0781 18.1927 18.1667 19.1042 17.5156 20.25C16.8385 21.3958 16.5 22.6458 16.5 24C16.5 25.3542 16.8385 26.6042 17.5156 27.75C18.1667 28.8958 19.0781 29.8073 20.25 30.4844C21.4219 31.1615 22.6719 31.5 24 31.5C25.3281 31.5 26.5781 31.1615 27.75 30.4844C28.9219 29.8073 29.8333 28.8958 30.4844 27.75C31.1615 26.6042 31.5 25.3542 31.5 24ZM14 24C14.026 22.1771 14.4688 20.5104 15.3281 19C16.2135 17.4896 17.4375 16.2656 19 15.3281C20.5885 14.4427 22.2552 14 24 14C25.7448 14 27.4115 14.4427 29 15.3281C30.5625 16.2656 31.7865 17.4896 32.6719 19C33.5312 20.5104 33.974 22.1771 34 24C33.974 25.8229 33.5312 27.4896 32.6719 29C31.7865 30.5104 30.5625 31.7344 29 32.6719C27.4115 33.5573 25.7448 34 24 34C22.2552 34 20.5885 33.5573 19 32.6719C17.4375 31.7344 16.2135 30.5104 15.3281 29C14.4688 27.4896 14.026 25.8229 14 24ZM24 27.125C25.1719 27.099 26.0703 26.5781 26.6953 25.5625C27.2682 24.5208 27.2682 23.4792 26.6953 22.4375C26.0703 21.4219 25.1719 20.901 24 20.875C22.8281 20.901 21.9297 21.4219 21.3047 22.4375C20.7318 23.4792 20.7318 24.5208 21.3047 25.5625C21.9297 26.5781 22.8281 27.099 24 27.125ZM24 18.375C25.0156 18.375 25.9531 18.6224 26.8125 19.1172C27.6719 19.612 28.362 20.3021 28.8828 21.1875C29.3776 22.0729 29.625 23.0104 29.625 24C29.625 24.9896 29.3776 25.9271 28.8828 26.8125C28.362 27.6979 27.6719 28.388 26.8125 28.8828C25.9531 29.3776 25.0156 29.625 24 29.625C22.9844 29.625 22.0469 29.3776 21.1875 28.8828C20.3281 28.388 19.638 27.6979 19.1172 26.8125C18.6224 25.9271 18.375 24.9896 18.375 24C18.375 23.0104 18.6224 22.0729 19.1172 21.1875C19.638 20.3021 20.3281 19.612 21.1875 19.1172C22.0469 18.6224 22.9844 18.375 24 18.375ZM22.75 24C22.75 23.6354 22.8672 23.3359 23.1016 23.1016C23.3359 22.8672 23.6354 22.75 24 22.75C24.3646 22.75 24.6641 22.8672 24.8984 23.1016C25.1328 23.3359 25.25 23.6354 25.25 24C25.25 24.3646 25.1328 24.6641 24.8984 24.8984C24.6641 25.1328 24.3646 25.25 24 25.25C23.6354 25.25 23.3359 25.1328 23.1016 24.8984C22.8672 24.6641 22.75 24.3646 22.75 24Z" fill="#135BEC"/>
</svg>
